# xmcd
#
# Track frame offsets:
#	187
#	12555
#	21645
#	35802
#	45270
#	57412
#	67750
#	81120
#	93712
#	103865
#	114855
#	128737
#	137712
#	150715
#	162750
#	170420
#	181900
#	193912
#	205810
#	217100
#
# Disc length: 3019 seconds
#
# Revision: 1
# Processed by: cddbd v1.5PL3 Copyright (c) Steve Scherf et al.
# Submitted via: CDex 1.50Beta5
#
DISCID=1c0bc914
DTITLE=Jodel - Jodel
DYEAR=1985
DGENRE=
TTITLE0=Kuckucksjoedler
TTITLE1=Mau Liedle
TTITLE2=Lydia-Waltzer
TTITLE3=Land IT LUCK(polka)
TTITLE4=Wieder Dahoam
TTITLE5=Es Chunnt Es Meiteli Hurtig Har
TTITLE6=Zetzt Wird BODELET!(Landler)
TTITLE7=Am Sunnige Egge
TTITLE8=Nimm Dr Es Bitzeli Zyt
TTITLE9=Jodel-Polka
TTITLE10=Erizherzog-Johann-Jodeler
TTITLE11=Niene Geits So Schon Und Luschtig
TTITLE12=DER Lustige KUCKUCK(Waltzer)
TTITLE13=Es Jodelt Ein Tirolerbua
TTITLE14=Jodelerwalzer
TTITLE15=Liebe Leut
TTITLE16=Hohe Berge,Gletscherwand
TTITLE17=Zuricher LanDJugend-marsch
TTITLE18=Labeslust
TTITLE19=Ja,Du Bisch Ja Nur Es Babeli
EXTD=
EXTT0=
EXTT1=
EXTT2=
EXTT3=
EXTT4=
EXTT5=
EXTT6=
EXTT7=
EXTT8=
EXTT9=
EXTT10=
EXTT11=
EXTT12=
EXTT13=
EXTT14=
EXTT15=
EXTT16=
EXTT17=
EXTT18=
EXTT19=
PLAYORDER=
